PathFileType	4	(X/Y/Z)	D:\Share\Shared_Data\Ergonomics\Sit To Stand Pertubation\S1\S1 Cal 01.trc
DataRate	CameraRate	NumFrames	NumMarkers	Units	OrigDataRate	OrigDataStartFrame	OrigNumFrames	
100	100	16	21	mm	100	119	237
Frame#	Time	R_ASIS			R_Pelvis			V_Sacral			L_Pelvis			L_ASIS			Clavical			R_Acromium			L_Acromium			Sternum			Torso			R_Thigh_Med			R_Thigh_Lat			R_Thigh			R_Shank_Med			R_Shank_Lat			R_Shank			R_Heel			R_Toe			RAJC			RHJC			RKJC			
		X1	Y1	Z1	X2	Y2	Z2	X3	Y3	Z3	X4	Y4	Z4	X5	Y5	Z5	X6	Y6	Z6	X7	Y7	Z7	X8	Y8	Z8	X9	Y9	Z9	X10	Y10	Z10	X11	Y11	Z11	X12	Y12	Z12	X13	Y13	Z13	X14	Y14	Z14	X15	Y15	Z15	X16	Y16	Z16	X17	Y17	Z17	X18	Y18	Z18	X19	Y19	Z19	X20	Y20	Z20	X21	Y21	Z21	

119	1.18	445.58957	912.42334	68.618782	378.57132	911.71204	94.230644	303.60281	907.32343	-64.455994	423.50995	899.67224	-192.14771	501.05423	898.49384	-129.05363	447.63235	1254.3459	-45.65374	353.42554	1315.8386	93.539452	397.97229	1319.5011	-187.99306	415.24289	1263.6177	53.210308	452.73346	1259.5143	-106.85379	335.50851	419.45148	4.4546728	360.59415	441.89374	130.43599	449.81448	599.1825	76.581078	330.72815	96.317497	50.940788	309.3035	96.533867	129.63402	324.04285	308.46362	149.78082	263.50406	39.487038	75.782326	469.59366	50.09206	91.483307	320.015825	96.425682	90.287404	401.7862907	838.3776159	32.72840174	348.05133	430.67261	67.4453314
120	1.19	445.56064	912.41455	68.630501	378.55072	911.69647	94.259453	303.53256	907.32349	-64.396851	423.46439	899.68884	-192.03711	500.96817	898.51392	-129.02736	447.55423	1254.3199	-45.650604	353.39685	1315.8066	93.562576	397.82306	1319.491	-188.01866	415.22223	1263.6067	53.204762	452.61456	1259.4733	-106.86777	335.48718	419.48093	4.4813342	360.65262	441.87985	130.46063	449.79892	599.16809	76.566284	330.73093	96.336426	50.953556	309.31781	96.53598	129.64212	324.06818	308.44803	149.77155	263.4968	39.513206	75.845192	469.55862	50.093742	91.47934	320.02437	96.436203	90.297838	401.7503154	838.3803749	32.74646653	348.0699	430.68039	67.4709821
121	1.2	445.55508	912.40985	68.636261	378.56201	911.6969	94.299362	303.47473	907.302	-64.334496	423.26279	899.6106	-192.46626	501.00571	898.52936	-129.01379	447.45175	1254.3157	-45.655342	353.35449	1315.7881	93.610123	397.6619	1319.436	-188.01146	415.15753	1263.601	53.22987	452.5	1259.453	-106.88058	335.46976	419.47559	4.4890461	360.69678	441.86331	130.46014	449.78531	599.16339	76.534294	330.70438	96.315323	50.943737	309.31149	96.524567	129.64198	324.09781	308.43121	149.78894	263.48468	39.495129	75.777458	469.56894	50.089375	91.478249	320.007935	96.419945	90.2928585	401.7533658	838.3672471	32.73584747	348.08327	430.66945	67.47459305
122	1.21	445.52481	912.40717	68.636673	378.55881	911.68915	94.33036	303.42813	907.26453	-64.277489	423.17157	899.59143	-192.46179	500.98145	898.55273	-128.97836	447.36493	1254.316	-45.640209	353.30634	1315.8075	93.707809	397.52472	1319.4231	-188.02135	415.11481	1263.6022	53.24342	452.38202	1259.4379	-106.88057	335.45316	419.43356	4.4093013	360.71954	441.85532	130.46851	449.76422	599.16028	76.521324	330.68271	96.275261	50.929569	309.31671	96.501923	129.63826	324.13477	308.41846	149.804	263.49927	39.454681	75.72403	469.58063	50.088879	91.475929	319.99971	96.388592	90.2839145	401.7441645	838.3627381	32.73555361	348.08635	430.64444	67.43890565
123	1.22	445.49084	912.40466	68.638382	378.57324	911.69012	94.362534	303.38336	907.27045	-64.245979	423.09253	899.6012	-192.42068	500.91415	898.58795	-128.95729	447.24536	1254.3235	-45.624657	353.23874	1315.8169	93.771683	397.44971	1319.5803	-188.18871	415.05563	1263.6238	53.273727	452.27649	1259.4404	-106.88819	335.4693	419.4465	4.5119758	360.74918	441.83997	130.47868	449.79178	599.1723	76.527313	330.68692	96.278831	50.943275	309.3013	96.495804	129.65669	324.14792	308.40869	149.80331	263.48438	39.461842	75.799278	469.5596	50.099133	91.48391	319.99411	96.3873175	90.2999825	401.7131573	838.3712095	32.73660249	348.10924	430.643235	67.4953279
124	1.23	445.4678	912.41858	68.635109	378.56268	911.68079	94.390541	303.31888	907.2605	-64.218437	423.00629	899.61542	-192.43814	500.82236	898.61462	-128.97926	447.15289	1254.3235	-45.609638	353.20206	1315.8307	93.839272	397.31973	1319.6149	-188.15005	414.98779	1263.641	53.276257	452.18784	1259.4678	-106.85686	335.45169	419.47034	4.4643726	360.76651	441.82855	130.49376	449.77206	599.16302	76.516548	330.69058	96.294518	50.953003	309.31824	96.491638	129.64853	324.1431	308.39398	149.77684	263.48117	39.484035	75.785355	469.55655	50.091999	91.479393	320.00441	96.393078	90.3007665	401.6902969	838.3785623	32.74813498	348.1091	430.649445	67.4790663
125	1.24	445.42291	912.41901	68.648155	378.53568	911.677	94.410736	303.26529	907.22656	-64.192276	422.98563	899.66718	-192.18593	500.80414	898.62091	-128.9724	447.06454	1254.3229	-45.598267	353.11887	1315.8414	93.881729	397.1488	1319.4519	-187.96793	414.90857	1263.6477	53.295818	452.11334	1259.4933	-106.83669	335.46817	419.43301	4.4728765	360.77524	441.82153	130.4998	449.78522	599.1554	76.520271	330.67252	96.265846	50.928337	309.31015	96.477562	129.64752	324.16245	308.3894	149.81088	263.46161	39.484188	75.845856	469.54117	50.085041	91.457962	319.991335	96.371704	90.2879285	401.6623677	838.3639278	32.75597135	348.121705	430.62727	67.48633825
126	1.25	445.41934	912.43347	68.680328	378.49628	911.66541	94.399406	303.22733	907.19684	-64.193436	422.86423	899.60358	-192.42572	500.74054	898.65002	-128.97188	446.97275	1254.3186	-45.573616	353.06351	1315.8408	93.917885	397.06076	1319.4592	-187.93344	414.84857	1263.6554	53.341328	452.01904	1259.4999	-106.8019	335.47723	419.41153	4.4731679	360.78125	441.80923	130.49821	449.80237	599.16504	76.519173	330.63702	96.228943	50.911949	309.31223	96.46611	129.65692	324.17484	308.38431	149.80669	263.46695	39.459839	75.811653	469.58478	50.103588	91.471909	319.974625	96.3475265	90.2844345	401.6657315	838.3623277	32.8005472	348.12924	430.61038	67.48568895
127	1.26	445.36835	912.44165	68.688164	378.46924	911.6626	94.409317	303.18402	907.20087	-64.191986	422.8205	899.61877	-192.42107	500.70129	898.67505	-128.95651	446.90518	1254.3325	-45.526791	352.98724	1315.8402	93.93277	396.9668	1319.4709	-187.89624	414.78439	1263.6631	53.397015	451.92526	1259.5004	-106.7679	335.47049	419.43796	4.455616	360.79691	441.81061	130.50587	449.7854	599.17175	76.523819	330.67313	96.256447	50.941338	309.29138	96.459343	129.64766	324.18387	308.37564	149.81172	263.46451	39.490097	75.857727	469.54407	50.090794	91.452324	319.982255	96.357895	90.294499	401.6230536	838.3704975	32.80208059	348.1337	430.624285	67.480743
128	1.27	445.3197	912.43707	68.699814	378.40222	911.65289	94.394287	303.14087	907.16876	-64.190651	422.78107	899.62903	-192.40231	500.63156	898.68402	-128.97157	446.82629	1254.3497	-45.482506	352.91394	1315.8381	94.01358	396.91675	1319.4751	-187.88025	414.70334	1263.6589	53.448219	451.83926	1259.5122	-106.7308	335.47537	419.43698	4.4689093	360.79886	441.79367	130.5079	449.7991	599.17346	76.520874	330.66779	96.251854	50.928165	309.32034	96.465134	129.64461	324.18594	308.36801	149.79089	263.47174	39.458538	75.816437	469.53983	50.094013	91.471771	319.994065	96.358494	90.2863875	401.588204	838.3521668	32.81693632	348.137115	430.615325	67.48840465
129	1.28	445.24234	912.44159	68.699562	378.34589	911.63556	94.38868	303.0885	907.10864	-64.191048	422.74377	899.61603	-192.39861	500.4769	898.7002	-129.0029	446.73474	1254.3461	-45.439362	352.84137	1315.8462	94.062881	396.77832	1319.493	-187.83871	414.61749	1263.6479	53.480377	451.74548	1259.5122	-106.67442	335.47617	419.4126	4.4573064	360.80194	441.79492	130.48894	449.79572	599.18378	76.520798	330.63309	96.22493	50.910702	309.30356	96.448837	129.64276	324.18808	308.37396	149.79649	263.46143	39.465488	75.849297	469.52893	50.077614	91.46801	319.968325	96.3368835	90.276731	401.5388417	838.3361106	32.84167136	348.139055	430.60376	67.4731232
130	1.29	445.19727	912.44275	68.702408	378.30353	911.62537	94.396408	303.04736	907.08276	-64.191292	422.7121	899.61407	-192.40523	500.45227	898.73291	-128.98839	446.65314	1254.3228	-45.409832	352.74637	1315.8235	94.13781	396.6998	1319.4961	-187.7878	414.54761	1263.6328	53.556702	451.67398	1259.4989	-106.62068	335.46936	419.4006	4.4565606	360.78403	441.79874	130.4893	449.79761	599.19049	76.506447	330.6532	96.231857	50.911648	309.30402	96.444725	129.64308	324.16702	308.37173	149.7991	263.46954	39.466587	75.859192	469.54297	50.0914	91.474052	319.97861	96.338291	90.277364	401.5153062	838.3307148	32.83500956	348.126695	430.59967	67.4729303
131	1.3	445.1684	912.44745	68.699921	378.19986	911.61011	94.344772	303.01462	907.08148	-64.202789	422.68997	899.6355	-192.4194	500.41675	898.74078	-128.99417	446.55945	1254.3048	-45.358402	352.6481	1315.7592	94.144585	396.61664	1319.4716	-187.73459	414.45764	1263.6217	53.603943	451.57458	1259.4922	-106.56142	335.45398	419.42697	4.4527583	360.75339	441.79483	130.47508	449.80731	599.19379	76.515923	330.66495	96.245445	50.926849	309.30899	96.44352	129.63834	324.16556	308.37161	149.79904	263.47772	39.469425	75.780289	469.5563	50.086823	91.479942	319.98697	96.3444825	90.2825945	401.4876643	838.3334771	32.83350869	348.103685	430.6109	67.46391915
132	1.31	445.11316	912.44135	68.697174	378.19763	911.60583	94.347916	302.97894	907.07086	-64.212151	422.66931	899.64459	-192.39539	500.38754	898.76794	-129.00386	446.44864	1254.2887	-45.295879	352.52649	1315.7269	94.170654	396.5274	1319.4956	-187.67915	414.35834	1263.6055	53.668201	451.48297	1259.4977	-106.52253	335.42856	419.41953	4.452281	360.71088	441.79907	130.4417	449.7341	599.1886	76.474472	330.66962	96.242821	50.921513	309.31116	96.443657	129.63022	324.1431	308.35706	149.77681	263.47534	39.464729	75.78627	469.5575	50.091614	91.484924	319.99039	96.343239	90.2758665	401.4495532	838.3216432	32.81535867	348.06972	430.6093	67.4469905
133	1.32	445.07394	912.44678	68.68586	378.08905	911.60406	94.303528	302.93918	907.04932	-64.246574	422.65741	899.69098	-192.27489	500.3696	898.77191	-129.01901	446.35541	1254.2714	-45.24403	352.4343	1315.7085	94.238083	396.41611	1319.464	-187.6114	414.2511	1263.5857	53.724022	451.40604	1259.5107	-106.46185	335.41092	419.39014	4.4316807	360.65833	441.80368	130.43979	449.74451	599.20435	76.47168	330.65332	96.22406	50.918587	309.30573	96.450546	129.62408	324.10202	308.36804	149.7796	263.45715	39.471581	75.840118	469.57718	50.08807	91.483597	319.979525	96.337303	90.2713335	401.4210345	838.3162084	32.80132206	348.034625	430.59691	67.43573535
134	1.33	445.01782	912.44165	68.682037	378.06155	911.60168	94.283463	302.90332	907.06335	-64.253326	422.63766	899.651	-192.42439	500.33383	898.77826	-129.0211	446.25284	1254.2629	-45.192734	352.3248	1315.6793	94.300644	396.33722	1319.4432	-187.54803	414.15579	1263.5724	53.785751	451.32449	1259.516	-106.40894	335.37198	419.39514	4.4196777	360.61276	441.81354	130.41103	449.69559	599.2074	76.454895	330.66428	96.232864	50.914062	309.30243	96.454102	129.62598	324.0661	308.36453	149.77214	263.48248	39.466366	75.758453	469.56018	50.073395	91.464622	319.983355	96.343483	90.270021	401.3663966	838.3154466	32.78753537	347.99237	430.60434	67.41535385
